REM DIRINDEX 1\2,1\3,1\4,1\5
REM DIRNAME "folder01","folder02","folder03","folder04","folder05"
TITLE ""
FILE "1Q_t_1369-1378.mp3" MP3
  TRACK 01 AUDIO
    TITLE "0:"
    INDEX 01 00:00:00
  TRACK 02 AUDIO
    TITLE "3:cjc172_5082"
    INDEX 01 00:00:10
  TRACK 03 AUDIO
    TITLE "0:"
    INDEX 01 00:01:41
  TRACK 04 AUDIO
    TITLE "4:cjc172_5083"
    INDEX 01 00:01:47
  TRACK 05 AUDIO
    TITLE "0:"
    INDEX 01 00:02:56
  TRACK 06 AUDIO
    TITLE "5:cjc172_5084"
    INDEX 01 00:02:62
  TRACK 07 AUDIO
    TITLE "0:"
    INDEX 01 00:07:03
  TRACK 08 AUDIO
    TITLE "3:cjc172_5085"
    INDEX 01 00:07:46
  TRACK 09 AUDIO
    TITLE "0:"
    INDEX 01 00:08:55
  TRACK 10 AUDIO
    TITLE "4:cjc172_5086"
    INDEX 01 00:08:63
  TRACK 11 AUDIO
    TITLE "0:"
    INDEX 01 00:10:71
  TRACK 12 AUDIO
    TITLE "5:cjc172_5087"
    INDEX 01 00:11:02
  TRACK 13 AUDIO
    TITLE "0:"
    INDEX 01 00:16:54
  TRACK 14 AUDIO
    TITLE "3:cjc172_5088"
    INDEX 01 00:17:24
  TRACK 15 AUDIO
    TITLE "0:"
    INDEX 01 00:18:36
  TRACK 16 AUDIO
    TITLE "4:cjc172_5089"
    INDEX 01 00:18:43
  TRACK 17 AUDIO
    TITLE "0:"
    INDEX 01 00:20:48
  TRACK 18 AUDIO
    TITLE "5:cjc172_5090"
    INDEX 01 00:20:54
  TRACK 19 AUDIO
    TITLE "0:"
    INDEX 01 00:25:30
  TRACK 20 AUDIO
    TITLE "3:cjc172_5091"
    INDEX 01 00:26:00
  TRACK 21 AUDIO
    TITLE "0:"
    INDEX 01 00:27:19
  TRACK 22 AUDIO
    TITLE "4:cjc172_5092"
    INDEX 01 00:27:25
  TRACK 23 AUDIO
    TITLE "0:"
    INDEX 01 00:28:16
  TRACK 24 AUDIO
    TITLE "5:cjc172_5093"
    INDEX 01 00:28:22
  TRACK 25 AUDIO
    TITLE "0:"
    INDEX 01 00:32:32
  TRACK 26 AUDIO
    TITLE "3:cjc172_5094"
    INDEX 01 00:33:02
  TRACK 27 AUDIO
    TITLE "0:"
    INDEX 01 00:34:09
  TRACK 28 AUDIO
    TITLE "4:cjc172_5095"
    INDEX 01 00:34:19
  TRACK 29 AUDIO
    TITLE "0:"
    INDEX 01 00:37:15
  TRACK 30 AUDIO
    TITLE "5:cjc172_5096"
    INDEX 01 00:37:23
  TRACK 31 AUDIO
    TITLE "0:"
    INDEX 01 00:40:74
  TRACK 32 AUDIO
    TITLE "3:cjc172_5097"
    INDEX 01 00:41:45
  TRACK 33 AUDIO
    TITLE "0:"
    INDEX 01 00:42:52
  TRACK 34 AUDIO
    TITLE "4:cjc172_5098"
    INDEX 01 00:42:60
  TRACK 35 AUDIO
    TITLE "0:"
    INDEX 01 00:45:01
  TRACK 36 AUDIO
    TITLE "5:cjc172_5099"
    INDEX 01 00:45:09
  TRACK 37 AUDIO
    TITLE "0:"
    INDEX 01 00:50:00
  TRACK 38 AUDIO
    TITLE "3:cjc172_5100"
    INDEX 01 00:50:45
  TRACK 39 AUDIO
    TITLE "0:"
    INDEX 01 00:51:45
  TRACK 40 AUDIO
    TITLE "4:cjc172_5101"
    INDEX 01 00:51:53
  TRACK 41 AUDIO
    TITLE "0:"
    INDEX 01 00:53:73
  TRACK 42 AUDIO
    TITLE "5:cjc172_5102"
    INDEX 01 00:54:04
  TRACK 43 AUDIO
    TITLE "0:"
    INDEX 01 00:59:39
  TRACK 44 AUDIO
    TITLE "3:cjc172_5103"
    INDEX 01 01:00:12
  TRACK 45 AUDIO
    TITLE "0:"
    INDEX 01 01:01:20
  TRACK 46 AUDIO
    TITLE "4:cjc172_5104"
    INDEX 01 01:01:30
  TRACK 47 AUDIO
    TITLE "0:"
    INDEX 01 01:02:35
  TRACK 48 AUDIO
    TITLE "5:cjc172_5105"
    INDEX 01 01:02:43
  TRACK 49 AUDIO
    TITLE "0:"
    INDEX 01 01:06:31
  TRACK 50 AUDIO
    TITLE "3:cjc172_5106"
    INDEX 01 01:07:01
  TRACK 51 AUDIO
    TITLE "0:"
    INDEX 01 01:08:14
  TRACK 52 AUDIO
    TITLE "4:cjc172_5107"
    INDEX 01 01:08:26
  TRACK 53 AUDIO
    TITLE "0:"
    INDEX 01 01:10:50
  TRACK 54 AUDIO
    TITLE "5:cjc172_5108"
    INDEX 01 01:10:56
  TRACK 55 AUDIO
    TITLE "0:"
    INDEX 01 01:16:43
  TRACK 56 AUDIO
    TITLE "3:cjc172_5109"
    INDEX 01 01:17:13
  TRACK 57 AUDIO
    TITLE "0:"
    INDEX 01 01:18:16
  TRACK 58 AUDIO
    TITLE "4:cjc172_5110"
    INDEX 01 01:18:24
  TRACK 59 AUDIO
    TITLE "0:"
    INDEX 01 01:20:31
  TRACK 60 AUDIO
    TITLE "5:cjc172_5111"
    INDEX 01 01:20:39
  TRACK 61 AUDIO
    TITLE "0:"
    INDEX 01 01:24:40
